# xmcd
#
# Track frame offsets:
#	150
#	16103
#	27159
#	43559
#	57021
#	70969
#	89368
#	100974
#	114958
#	134119
#	146648
#	160584
#	191741
#	204828
#
# Disc length: 2918 seconds
#
# Revision: 1
# Processed by: cddbd v1.5PL3 Copyright (c) Steve Scherf et al.
# Submitted via: audiograbber 1.81.03
#
DISCID=b90b640e
DTITLE=Norah Jones - come away with me
DYEAR=2002
DGENRE=Pop
TTITLE0=Don`t know why
TTITLE1=Seven years
TTITLE2=Cold cold heart
TTITLE3=Feelin`the same way
TTITLE4=Come away with me
TTITLE5=Shoot the Moon
TTITLE6=Turn me on
TTITLE7=Lonestar
TTITLE8=I`ve got to see you again
TTITLE9=Painter song
TTITLE10=One flight down
TTITLE11=Nightingale
TTITLE12=The long day is over
TTITLE13=The nearness of you
EXTD=
EXTT0=
EXTT1=
EXTT2=
EXTT3=
EXTT4=
EXTT5=
EXTT6=
EXTT7=
EXTT8=
EXTT9=
EXTT10=
EXTT11=
EXTT12=
EXTT13=
PLAYORDER=
